<?xml version="1.0" encoding="utf-8"?>
<!-- Generator: Adobe Illustrator 20.1.0, SVG Export Plug-In . SVG Version: 6.00 Build 0)  -->
<svg version="1.1" id="Capa_1" xmlns="http://www.w3.org/2000/svg" xmlns:xlink="http://www.w3.org/1999/xlink" x="0px" y="0px"
	 viewBox="0 0 1920 248" style="enable-background:new 0 0 1920 248;" xml:space="preserve">
<style type="text/css">
	.st0{display:none;}
	.st1{fill:#FFFFFF;}
</style>
<rect y="-311.6" class="st0" width="1928.3" height="1054"/>
<g>
	<path class="st1" d="M1982,188c-38-7-75-12-113-18c-14-2-27-4-40-5c-5,0-10-1-15-1c-3,0-6-1-9-2c-192-21-379-25-570-9
		c-21,2-42,4-64,6c-3,0-6,2-9,2c-30,2-59,6-89,11c-121,18-236,39-357,49c-31,2-61,5-91,6c-33,2-67,3-100,4c-46,2-91,1-137,1
		c-71-1-141-6-213-12c-80-8-158-18-237-32c1-43-3-85,0-128c38,7,75,12,113,18c14,2,27,4,40,5c5,0,10,1,15,1c3,0,6,1,9,2
		c192,21,379,25,570,9c21-2,42-4,64-6c3,0,6-2,9-2c30-2,59-6,89-11c121-18,236-39,357-49c31-2,61-5,91-6c33-2,67-3,100-4
		c46-2,91-1,137-1c71,1,141,6,213,12c80,8,158,18,237,32C1981,103,1985,145,1982,188L1982,188z"/>
</g>
</svg>
